<?xml version="1.0" standalone="no"?>
<!DOCTYPE svg PUBLIC "-//W3C//DTD SVG 1.0//EN" "http://www.w3.org/TR/2001/REC-SVG-20010904/DTD/svg10.dtd">
<svg xmlns="http://www.w3.org/2000/svg" xmlns:xlink="http://www.w3.org/1999/xlink" id="body_1" width="205" height="154">

<g transform="matrix(0.2001953 0 0 0.2005208 0 0)">
	<g transform="matrix(1 0 0 1 0 0)">
	</g>
    <path transform="matrix(1 0 0 1 0 0)"  d="M110.8 107.88L110.8 112.36C 110.8 113.52 109.86 114.45 108.71 114.45L108.71 114.45L13.61001 114.45L108.71 114.45L13.61001 114.45L13.61001 58.9C 11.27001 59.8 9.080008 59.82 7.260008 59.2C 7.000009 56.89 7.690008 54.28 9.660008 51.83C 9.760009 51.71 9.870008 51.59 10.00001 51.49L10.00001 51.49L59.85 0.55C 60.59 -0.13 61.73 -0.2 62.55 0.44L62.55 0.44L119.74 44.9C 119.83 44.97 119.91 45.04 119.99 45.13C 122.64 47.98 123.3 51.14 122.66 53.81C 121.79 54.79 120.68 55.55 119.42 56C 117.42 56.72 115.04 56.7 112.63 55.56L112.63 55.56L112.63 104.4L112.62 104.4L110.8 107.88zM5.57 48.23C 4.46 49.68 4.07 51.13 4.2 52.35C 4.28 53.05 4.53 53.67 4.93 54.17C 5.32 54.66 5.85 55.03 6.49 55.25C 7.58 55.62 8.99 55.52 10.6 54.76L10.6 54.76L60.39 16.88C 61.16 16.29 62.21 16.32 62.94 16.89L62.94 16.89L111.31 54.49C 111.33 54.51 111.35 54.53 111.38 54.54C 113.15 55.82 114.85 56.02 116.17 55.55C 116.59 55.07999 116.89 54.52 117.04 53.89C 117.37 52.50999 116.97 50.81 115.49 49.14999L115.49 49.14999L61.27 4.74L5.57 48.23zM29.6 75.49L56.3 75.49C 57.34 75.49 58.19 76.32 58.19 77.34L58.19 77.34L58.19 98.23C 58.19 99.24999 57.34 100.08 56.3 100.08L56.3 100.08L29.6 100.08C 28.56 100.08 27.71 99.24999 27.71 98.23L27.71 98.23L27.71 77.34L27.71 98.23L27.71 77.34zM67.73 73.65L92.8 73.65C 93.92001 73.65 94.83 74.59 94.83 75.75L94.83 75.75L94.83 110.27L106.61 110.27L106.61 56.57C 106.61 56.43 106.62 56.3 106.65 56.17L106.65 56.17L61.64 21.18L15.63 56.19C 15.68 56.36 15.7 56.54 15.7 56.73L15.7 56.73L15.7 110.26L65.7 110.26L65.7 75.74C 65.7 74.57999 66.61 73.65 67.73 73.65zM90.77 77.84L69.77 77.84L69.77 110.22L90.77 110.22L90.77 77.84zM54.41 89.63L44.5 89.63L44.5 96.38L54.41 96.38L54.41 89.63zM40.8 89.63L31.49 89.63L31.49 96.38L40.8 96.38L40.8 89.63zM31.49 85.93L40.8 85.93L40.8 79.19L31.49 79.19L31.49 85.93zM44.5 85.93L54.41 85.93L54.41 79.19L44.5 79.19L44.5 85.93zM60.88 36.33C 64.43 36.33 67.31 39.21 67.31 42.76C 67.31 46.31 64.43 49.19 60.88 49.19C 60.88 45.63 63.76 42.76 67.31 42.76z" stroke="none" fill="#000000" fill-rule="nonzero" />
</g>
</svg>